<?xml version="1.0" encoding="UTF-8" standalone="no"?>
<!-- Created with Inkscape (http://www.inkscape.org/) -->

<svg
   width="1085.6147"
   height="377.81995"
   viewBox="0 0 267.38292 93.055663"
   version="1.1"
   id="svg1"
   sodipodi:docname="ROOTEDLOGO6.SVG"
   inkscape:version="1.3 (0e150ed, 2023-07-21)"
   inkscape:export-filename="ROOTEDLOGO4.png"
   inkscape:export-xdpi="300"
   inkscape:export-ydpi="300"
   xmlns:inkscape="http://www.inkscape.org/namespaces/inkscape"
   xmlns:sodipodi="http://sodipodi.sourceforge.net/DTD/sodipodi-0.dtd"
   xmlns="http://www.w3.org/2000/svg"
   xmlns:svg="http://www.w3.org/2000/svg">
  <sodipodi:namedview
     id="namedview1"
     pagecolor="#ffffff"
     bordercolor="#000000"
     borderopacity="0.25"
     inkscape:showpageshadow="2"
     inkscape:pageopacity="0.0"
     inkscape:pagecheckerboard="0"
     inkscape:deskcolor="#d1d1d1"
     inkscape:zoom="4.8945773"
     inkscape:cx="102.35818"
     inkscape:cy="84.276941"
     inkscape:window-width="1312"
     inkscape:window-height="936"
     inkscape:window-x="149"
     inkscape:window-y="76"
     inkscape:window-maximized="0"
     inkscape:current-layer="g3"
     inkscape:clip-to-page="true" />
  <defs
     id="defs1">
    <marker
       style="overflow:visible"
       id="Dot"
       refX="0"
       refY="0"
       orient="auto"
       markerWidth="1"
       markerHeight="1"
       viewBox="0 0 1 1"
       preserveAspectRatio="xMidYMid">
      <path
         transform="scale(0.5)"
         style="fill:context-stroke;fill-rule:evenodd;stroke:none"
         d="M 5,0 C 5,2.76 2.76,5 0,5 -2.76,5 -5,2.76 -5,0 c 0,-2.76 2.3,-5 5,-5 2.76,0 5,2.24 5,5 z"
         id="path17" />
    </marker>
  </defs>
  <g
     id="g3"
     transform="matrix(0.96608466,0,0,0.94267946,3.7340407,2.6668287)">
    <path
       id="path104"
       style="fill:#00ff00;fill-opacity:1;stroke:#000000;stroke-width:1.00179;stroke-dasharray:none;stroke-opacity:1"
       d="M 21.809175,33.463215 A 20.420527,21.230529 13.644368 0 0 35.199456,18.460639 20.420527,21.230529 13.644368 0 0 31.472177,0.1480629 a 19.32023,21.345284 12.305258 0 0 -2.440058,1.150185 19.32023,21.345284 12.305258 0 0 -2.41213,1.600069 19.32023,21.345284 12.305258 0 0 -2.193677,1.950528 19.32023,21.345284 12.305258 0 0 -1.93042,2.261431 19.32023,21.345284 12.305258 0 0 -1.628334,2.525541 19.32023,21.345284 12.305258 0 0 -1.292435,2.7393561 19.32023,21.345284 12.305258 0 0 -0.93077,2.896377 19.32023,21.345284 12.305258 0 0 -0.5498,2.99524 19.32023,21.345284 12.305258 0 0 -0.158032,3.032489 19.32023,21.345284 12.305258 0 0 0.237612,3.008529 19.32023,21.345284 12.305258 0 0 0.627605,2.922808 19.32023,21.345284 12.305258 0 0 1.00538,2.778056 19.32023,21.345284 12.305258 0 0 1.362554,2.576502 19.32023,21.345284 12.305258 0 0 0.639503,0.878041 z" />
    <path
       id="text145"
       style="font-weight:bold;font-size:120.235px;font-family:'Snell Roundhand';-inkscape-font-specification:'Snell Roundhand, Bold';letter-spacing:0.327574px;word-spacing:0.135463px;fill:#000000;stroke-width:1.00179;paint-order:fill markers stroke;fill-opacity:1"
       d="M 31.443453 0.48437753 C 31.422163 0.58198743 31.293124 0.7579053 31.164112 0.93395012 L 31.172577 0.90741462 C 30.148304 3.5311064 29.206682 6.1358238 28.336836 8.6874189 C 27.756271 8.0768988 26.819422 7.1151238 25.858613 6.129805 C 25.858456 6.129644 25.855725 6.1267432 25.855625 6.1267432 L 25.855127 6.1262329 C 25.642877 5.9852181 25.429991 5.843704 25.329308 5.7567771 C 25.429991 5.843707 25.620833 6.051191 25.811309 6.2578898 C 26.755437 7.3039986 27.676336 8.323571 28.250195 8.9435886 C 27.617729 10.806918 27.024767 12.638664 26.471571 14.42419 C 25.587187 13.656904 24.036747 12.36055 22.474645 11.054692 C 22.474401 11.054488 22.470264 11.05102 22.470164 11.05112 L 22.46867 11.050099 C 22.127869 10.889189 21.786524 10.728362 21.627658 10.621959 C 21.786524 10.728362 22.081893 10.993597 22.376552 11.258301 L 22.370577 11.253708 C 23.867975 12.634925 25.355424 14.006282 26.237043 14.791604 C 26.235432 14.806856 26.233633 14.818089 26.231068 14.81865 C 26.239438 14.816859 26.278117 14.908522 26.303767 14.960513 C 25.644635 17.106703 25.044401 19.178549 24.496262 21.155021 C 23.546588 20.202363 21.965489 18.671604 20.378338 17.134893 C 20.37808 17.134643 20.373957 17.130611 20.373857 17.130811 L 20.372363 17.12979 C 20.005834 16.940442 19.638887 16.750693 19.469607 16.622044 C 19.638887 16.750693 19.949741 17.077034 20.260328 17.402289 L 20.254353 17.396676 C 21.833701 19.09897 23.401985 20.788897 24.330948 21.75258 C 23.88478 23.377364 23.487437 24.905138 23.114492 26.373329 C 22.567141 25.791377 21.510097 24.707372 20.444564 23.614658 C 20.444407 23.614497 20.441676 23.611596 20.441576 23.611596 L 20.441078 23.611086 C 20.228829 23.470071 20.015942 23.329067 19.915259 23.24214 C 20.015942 23.32907 20.206784 23.536044 20.39726 23.742743 C 21.45247 24.911933 22.503424 26.07644 23.042291 26.651442 C 22.376055 29.286367 21.816743 31.659176 21.376698 33.627727 C 21.376555 33.628346 21.723397 33.710285 21.723261 33.710905 L 21.723759 33.710905 C 21.723895 33.710284 22.071166 33.78813 22.071318 33.78745 C 22.515521 31.800301 23.065106 29.409496 23.71301 26.757073 C 24.552958 26.474707 25.994099 25.966191 27.465449 25.446118 C 27.465678 25.446037 27.469931 25.444176 27.469931 25.444076 L 27.470927 25.444076 C 27.752884 25.280302 28.035294 25.115733 28.176501 25.052168 C 28.036257 25.115294 27.755352 25.205206 27.474412 25.295069 C 26.040246 25.735734 24.639377 26.166619 23.791684 26.440689 C 24.161527 24.933552 24.5534 23.368817 24.994695 21.698489 C 26.337095 21.225023 28.846556 20.289486 31.382705 19.343463 C 31.383081 19.343323 31.390174 19.340601 31.390174 19.340401 L 31.391668 19.339891 C 31.831596 19.071822 32.272172 18.803183 32.499076 18.696405 C 32.272172 18.803183 31.803587 18.962443 31.335899 19.121483 L 31.344364 19.117911 C 28.906481 19.917096 26.518426 20.700476 25.133619 21.177985 C 25.669678 19.165513 26.258372 17.053775 26.904276 14.865087 C 28.265492 14.557032 30.414431 14.045551 32.618082 13.519942 C 32.618445 13.519855 32.624555 13.5181 32.624555 13.5179 L 32.626049 13.51739 C 33.050633 13.329516 33.476198 13.141537 33.695116 13.070879 C 33.476198 13.141539 33.024357 13.236377 32.573268 13.331131 L 32.581235 13.32858 C 30.467397 13.750257 28.402972 14.163151 27.027764 14.451746 C 27.552983 12.684067 28.11555 10.871287 28.71676 9.0247259 C 29.547328 8.746586 31.022895 8.2256462 32.52447 7.6948892 C 32.524699 7.6948082 32.528952 7.692948 32.528952 7.692848 L 32.529948 7.6923377 C 32.811905 7.5285629 33.094315 7.364504 33.235522 7.3009391 C 33.095278 7.3640655 32.814374 7.4539779 32.533433 7.543841 C 31.08387 7.9892361 29.666375 8.4252534 28.822323 8.6986455 C 29.643833 6.1895986 30.534097 3.6255592 31.504699 1.0380509 L 31.512666 1.0145772 C 31.512687 1.0146732 31.51167 1.0109051 31.51167 1.0110051 C 31.46691 0.79638234 31.422393 0.58204543 31.443453 0.48437753 z M 60.667267 21.180026 C 58.205139 21.180026 55.49161 21.460221 52.527023 22.020997 C 49.562416 22.58178 46.598001 23.39781 43.633404 24.468387 C 40.719056 25.538964 37.87984 26.864258 35.116223 28.444629 C 32.352626 30.025007 29.890491 31.860573 27.729853 33.950745 C 25.619455 35.989941 23.911035 38.258065 22.604606 40.75608 C 21.348418 43.254089 20.72042 45.956314 20.72042 48.862165 C 20.72042 50.646457 21.047147 52.252454 21.700356 53.679889 C 22.353576 55.107328 23.232968 56.330864 24.338417 57.350463 C 25.494106 58.319082 26.800486 59.057899 28.257664 59.567708 C 29.765083 60.077508 31.372744 60.332645 33.081162 60.332645 C 35.844759 60.332645 38.33233 59.771751 40.543218 58.650192 C 42.754106 57.477643 44.613171 55.94835 46.12059 54.062102 C 47.678258 52.124866 48.858941 49.932924 49.6629 47.485891 C 50.466859 45.038858 50.868899 42.515081 50.868899 39.915109 C 50.868899 39.354333 50.844011 38.79344 50.793711 38.232656 C 50.743471 37.671881 50.693136 37.136549 50.642837 36.626748 L 49.813775 36.703293 C 49.864074 37.417009 49.888963 38.105219 49.888963 38.767959 C 49.939263 39.430692 49.964649 39.991593 49.964649 40.450412 C 49.964649 42.489608 49.587557 44.605369 48.833838 46.797499 C 48.130379 48.938653 47.12527 50.926589 45.818841 52.761863 C 44.512402 54.546166 42.955126 56.024835 41.146217 57.197374 C 39.387559 58.369912 37.427735 58.956371 35.267097 58.956371 C 32.50349 58.956371 30.342656 58.114765 28.784978 56.432437 C 27.227319 54.699119 26.448666 52.456048 26.448666 49.703136 C 26.448666 45.573768 27.529088 41.826961 29.689726 38.46229 C 31.850364 35.046639 34.613769 32.140919 37.980346 29.744869 C 41.346922 27.297836 45.090489 25.411138 49.210775 24.085663 C 53.331071 22.760189 57.35096 22.097542 61.270266 22.097542 C 62.174715 22.097542 63.229701 22.123077 64.43564 22.174086 C 65.691819 22.225068 66.998209 22.352379 68.354888 22.5563 C 69.761816 22.760222 71.168945 23.066489 72.575884 23.474326 C 74.033062 23.882164 75.389827 24.417501 76.646006 25.080234 C 73.530669 26.354733 70.716879 28.088041 68.204511 30.280171 C 65.742384 32.421325 63.480791 34.842838 61.420643 37.544774 C 59.360495 40.246705 57.451553 43.101292 55.692895 46.109107 C 53.934227 49.116916 52.225817 52.099333 50.567648 55.056163 C 48.90949 58.013 47.250947 60.842524 45.592778 63.544461 C 43.93462 66.246388 36.674079 73.736137 34.764681 75.826315 C 33.425782 77.402443 31.367867 80.806572 26.227583 80.204672 C 24.924124 80.052532 23.412065 79.583372 22.303356 78.886572 C 21.788046 78.621022 20.838493 78.47659 22.072812 79.685189 C 22.911831 80.506728 25.781221 81.085853 26.179781 81.130353 C 29.328638 81.482342 32.559008 80.677915 36.176825 78.791657 C 39.844881 76.905409 46.598032 71.216913 49.361649 68.209096 C 52.125247 65.150309 54.561935 61.734316 56.672333 57.9618 C 58.832971 54.138314 60.968877 50.314809 63.079265 46.49132 C 65.239913 42.61685 67.525946 38.946736 69.937823 35.480109 C 72.349691 31.962499 75.188429 29.005655 78.454506 26.609597 C 79.610205 27.731156 80.414274 28.852434 80.866504 29.973992 C 81.318723 31.095551 81.54519 32.471971 81.54519 34.103324 C 81.54519 35.224882 81.318723 36.575734 80.866504 38.156112 C 80.414274 39.685507 79.686006 41.189754 78.681067 42.668167 C 77.726358 44.095605 76.469854 45.395324 74.912195 46.567865 C 73.404767 47.689424 71.596086 48.403197 69.485698 48.709076 C 68.380249 48.862015 67.450473 48.964244 66.696764 49.015254 C 65.943054 49.066264 65.189349 49.066264 64.43564 49.015254 L 64.284766 49.626591 C 65.088725 49.728549 65.817482 49.856376 66.470701 50.009315 C 67.12391 50.111273 67.676595 50.315284 68.128825 50.621162 C 68.631294 50.927042 69.008406 51.360109 69.259636 51.920892 C 69.510875 52.430692 69.636075 53.17004 69.636075 54.138647 C 69.636075 55.056286 69.309856 56.254258 68.656636 57.732676 C 68.053667 59.211085 67.375295 60.817082 66.621575 62.5504 C 65.867866 64.283709 65.164536 66.042584 64.511326 67.826882 C 63.908357 69.61117 63.606578 71.318916 63.606578 72.950275 C 63.606578 74.734573 64.159263 76.161607 65.264702 77.232186 C 66.370151 78.302765 67.877551 78.838094 69.786949 78.838094 C 72.450066 78.838094 74.987504 78.048138 77.399381 76.467759 C 79.811259 74.887391 82.273384 72.797194 84.785751 70.197217 C 85.324585 69.621753 85.836896 69.025861 86.359724 68.438219 C 86.31966 68.895009 86.272586 69.350687 86.272586 69.815004 C 86.272586 72.618891 87.101603 74.836401 88.759772 76.467759 C 90.41794 78.048138 92.628661 78.838094 95.392268 78.838094 C 98.005135 78.838094 100.51763 78.353894 102.92951 77.385275 C 105.34139 76.365676 107.52716 75.014816 109.48682 73.332488 C 111.44647 71.59917 113.10451 69.610722 114.46119 67.367614 C 115.86813 65.073516 116.87322 62.651998 117.47619 60.103011 C 118.17965 61.02065 118.95829 61.734422 119.8125 62.244221 C 120.66671 62.754021 121.67182 63.009158 122.8275 63.009158 C 123.37778 63.009158 123.90531 62.928046 124.42238 62.810142 C 123.31521 65.042983 122.7314 67.374133 122.7314 69.815004 C 122.7314 72.618891 123.56041 74.836401 125.21858 76.467759 C 126.87675 78.048138 129.08746 78.838094 131.85108 78.838094 C 134.46395 78.838094 136.97645 78.353894 139.38832 77.385275 C 141.80019 76.365676 143.98598 75.014816 145.94563 73.332488 C 147.90528 71.59917 149.56332 69.610722 150.92 67.367614 C 152.32693 65.073516 153.33204 62.651998 153.935 60.103011 C 154.63847 61.02065 155.41709 61.734422 156.27131 62.244221 C 157.12551 62.754021 158.13062 63.009158 159.28631 63.009158 C 160.21016 63.009158 161.08216 62.825062 161.91242 62.492737 C 161.46983 63.210716 160.9429 64.028994 160.54708 64.691611 C 159.59238 66.373949 158.83869 67.928807 158.28596 69.356246 C 157.73324 70.732694 157.4564 72.083564 157.4564 73.409033 C 157.4564 75.244311 158.05946 76.544031 159.2654 77.308731 C 160.47134 78.02245 161.87847 78.379336 163.48639 78.379336 C 164.64208 78.379336 165.82276 78.150274 167.0287 77.691454 C 168.23464 77.232635 169.4657 76.620611 170.72189 75.855912 C 171.97808 75.040233 173.20913 74.122443 174.41507 73.102854 C 175.67126 72.032275 176.87738 70.910998 178.03307 69.738459 C 178.77042 68.990358 179.45836 68.235226 180.15278 67.4809 C 180.04088 68.155088 179.97203 68.830721 179.97203 69.508825 C 179.97203 72.261732 180.80105 74.504807 182.45922 76.238125 C 184.11738 77.971444 186.37848 78.838094 189.24259 78.838094 C 192.05643 78.838094 195.0463 78.252146 198.21189 77.079607 C 201.42773 75.856088 204.76876 73.663632 208.23582 70.502885 C 209.31968 69.492997 210.30777 68.510974 211.2553 67.540605 C 211.05756 68.524567 210.92866 69.511209 210.92866 70.502885 C 210.92866 71.522484 211.02891 72.516958 211.22991 73.485578 C 211.48115 74.403217 211.85824 75.244302 212.36072 76.009001 C 212.91344 76.722721 213.59181 77.283615 214.39578 77.691454 C 215.24999 78.150274 216.28003 78.379336 217.48597 78.379336 C 219.89784 78.379336 222.03325 77.818952 223.8924 76.697394 C 225.75156 75.575835 227.45998 74.1989 229.01765 72.567551 L 229.16852 72.720641 C 229.01772 73.38337 228.99234 74.071597 229.09283 74.785307 C 229.19333 75.499026 229.44473 76.161669 229.84671 76.773428 C 230.29893 77.385187 230.87706 77.869897 231.58052 78.226757 C 232.33423 78.634596 233.28895 78.838094 234.44464 78.838094 C 236.95701 78.838094 239.31837 78.073703 241.52926 76.544304 C 243.74015 75.014906 246.05163 72.975848 248.46351 70.426851 C 249.41821 69.407262 250.37293 68.336594 251.32763 67.215035 C 252.33257 66.042496 253.2873 64.895144 254.19175 63.773585 C 255.09621 62.652026 255.92523 61.581368 256.67894 60.561769 C 257.48291 59.54217 258.16128 58.650465 258.714 57.885766 L 257.96013 57.503042 C 255.95023 60.204969 254.09117 62.601443 252.38275 64.691611 C 250.67435 66.730809 248.89059 68.718747 247.03144 70.655975 C 244.77031 73.052032 242.71022 74.785333 240.85107 75.855912 C 239.04217 76.926491 237.61009 77.46182 236.55489 77.46182 C 236.00217 77.46182 235.60013 77.308942 235.34889 77.003062 C 235.09766 76.646202 234.97195 76.187568 234.97195 75.626788 C 234.97195 74.658169 235.47425 73.103311 236.4792 70.962154 C 237.5344 68.820996 238.89116 66.322793 240.54933 63.467916 C 242.25773 60.562069 244.19262 57.426769 246.35326 54.062102 C 248.5139 50.646446 250.69969 47.2054 252.91057 43.738772 C 255.1717 40.272145 257.35748 36.881709 259.46787 33.568022 C 261.62851 30.203351 263.53795 27.144753 265.19612 24.391842 L 256.75413 24.8506 L 239.04208 54.367771 C 237.88639 51.105053 235.62528 49.474012 232.25871 49.474012 C 229.79659 49.474012 227.30951 50.085528 224.79715 51.309044 C 222.28478 52.532561 219.99823 54.13855 217.93809 56.126768 C 215.87794 58.114976 214.19496 60.383626 212.88853 62.932614 C 212.4157 63.836715 212.05843 64.745293 211.75672 65.656074 C 210.75406 66.706029 209.73402 67.73798 208.68845 68.744398 C 206.12583 71.191426 203.56295 73.05206 201.00033 74.326549 C 198.48795 75.601047 196.17648 76.238125 194.06608 76.238125 C 191.90545 76.238125 190.22246 75.549918 189.01652 74.173459 C 187.81058 72.797011 187.20753 71.013081 187.20753 68.820943 C 187.20753 68.005264 187.33322 67.087484 187.58446 66.067885 C 188.48892 65.863965 189.64466 65.608828 191.05158 65.302948 C 192.45851 64.997068 193.96591 64.615128 195.57383 64.156308 C 197.18175 63.697489 198.78941 63.16215 200.39733 62.5504 C 202.05549 61.938641 203.53796 61.224869 204.84439 60.40919 C 206.15083 59.59351 207.2058 58.675721 208.00976 57.656132 C 208.86398 56.636533 209.29145 55.514745 209.29145 54.291226 C 209.29145 52.761833 208.68839 51.589422 207.48245 50.773742 C 206.27651 49.907086 204.59303 49.474012 202.43239 49.474012 C 200.07076 49.474012 197.55826 50.059965 194.89515 51.232499 C 192.28228 52.40504 189.87054 53.934852 187.65965 55.8211 C 185.44876 57.707358 183.61465 59.848164 182.15747 62.244221 C 181.39724 63.494276 180.84652 64.751906 180.48291 66.015834 C 179.33879 67.279666 178.15058 68.62475 177.12832 69.661914 C 174.76669 71.956002 172.55597 73.766017 170.49583 75.091486 C 168.43568 76.365984 166.77764 77.003062 165.52145 77.003062 C 164.86823 77.003062 164.36545 76.799054 164.01371 76.391215 C 163.66198 75.983385 163.48639 75.448046 163.48639 74.785307 C 163.48639 74.020607 163.68741 73.128392 164.08939 72.108793 C 164.54161 71.089194 165.21999 69.738334 166.12445 68.056006 C 167.07915 66.322688 168.33516 64.181362 169.89283 61.632374 C 171.45049 59.032397 173.35993 55.846487 175.62107 52.073981 L 185.34375 52.073981 L 186.02244 50.697197 L 176.45013 50.697197 L 182.70619 40.75608 L 174.56595 41.062259 L 168.91289 50.697197 L 163.10946 50.697197 L 162.58164 52.073981 L 168.2347 52.073981 C 166.72728 54.724938 165.32013 57.069752 164.01371 59.10895 C 163.55739 59.821208 163.22226 60.390077 162.80273 61.058799 C 161.69206 61.735521 160.52204 62.091642 159.28631 62.091642 C 157.87938 62.091642 156.72364 61.632497 155.81919 60.714858 C 154.96498 59.797219 154.4123 58.573673 154.16106 57.044284 C 153.80933 54.954106 152.8546 53.169678 151.29694 51.691257 C 149.73926 50.212844 147.60386 49.474012 144.89051 49.474012 C 142.37814 49.474012 139.81526 50.034906 137.20239 51.156465 C 134.58952 52.227042 132.20321 53.705207 130.04258 55.591466 C 127.99636 57.32955 126.32315 59.37542 124.998 61.707898 C 124.29665 61.95522 123.57455 62.091642 122.8275 62.091642 C 121.42057 62.091642 120.26483 61.632497 119.36038 60.714858 C 118.50617 59.797219 117.95349 58.573673 117.70225 57.044284 C 117.35052 54.954106 116.3958 53.169678 114.83813 51.691257 C 113.28046 50.212844 111.14505 49.474012 108.4317 49.474012 C 105.91933 49.474012 103.35644 50.034906 100.74358 51.156465 C 98.130711 52.227042 95.744405 53.705207 93.583767 55.591466 C 91.42313 57.426744 89.664335 59.593635 88.307647 62.091642 C 87.455917 63.627899 86.903294 65.220077 86.586285 66.856806 C 85.627118 68.013863 84.629557 69.132113 83.579753 70.197217 C 81.318615 72.491314 79.183217 74.275755 77.173319 75.550243 C 75.163421 76.824742 73.430063 77.46182 71.972884 77.46182 C 70.817195 77.46182 70.239074 76.671864 70.239074 75.091486 C 70.239074 73.867967 70.46553 72.567736 70.91776 71.191277 C 71.420239 69.814829 71.947468 68.387275 72.500198 66.908856 C 73.052917 65.379458 73.555716 63.8246 74.007945 62.244221 C 74.510425 60.663843 74.761321 59.083411 74.761321 57.503042 C 74.761321 55.565804 74.158759 53.960316 72.952821 52.685828 C 71.797132 51.411331 70.465305 50.442415 68.957887 49.779681 L 68.957887 49.626591 C 71.068275 49.524635 73.254057 49.218876 75.515195 48.709076 C 77.776323 48.148293 79.836418 47.307211 81.695566 46.185652 C 83.604974 45.064093 85.162748 43.610978 86.368687 41.826686 C 87.574626 40.042386 88.177686 37.87601 88.177686 35.327019 C 88.177686 33.032926 87.499303 30.993865 86.142625 29.209566 C 84.836196 27.425274 83.253463 25.972159 81.394315 24.8506 C 82.600254 24.187859 83.85626 23.678091 85.162688 23.321237 C 86.519367 22.9134 87.876132 22.607641 89.23281 22.403721 L 89.23281 21.791873 C 87.775632 21.791873 86.217857 22.021447 84.559689 22.480265 C 82.901521 22.888102 81.243485 23.39787 79.585317 24.009629 C 77.876898 23.39787 76.26875 22.913154 74.761321 22.5563 C 73.253903 22.148463 71.746503 21.842706 70.239074 21.638784 C 68.731656 21.434862 67.199317 21.307581 65.641639 21.256571 C 64.08398 21.205601 62.425925 21.180026 60.667267 21.180026 z M 108.05476 50.391528 C 109.21046 50.391528 110.03948 50.748417 110.54194 51.462134 C 111.09466 52.175849 111.37101 53.169826 111.37101 54.444316 C 111.37101 55.514894 111.16999 56.8407 110.76801 58.421068 C 110.36603 60.001447 109.7884 61.658053 109.0347 63.391371 C 108.33124 65.12469 107.47676 66.857991 106.47182 68.591309 C 105.51711 70.324627 104.46214 71.879485 103.30645 73.255943 C 102.15075 74.632392 100.94463 75.75419 99.688452 76.620849 C 98.432264 77.487508 97.176258 77.920578 95.920079 77.920578 C 94.76438 77.920578 93.909926 77.563692 93.357207 76.849973 C 92.854727 76.136253 92.603831 75.142289 92.603831 73.867791 C 92.603831 72.797222 92.804851 71.471927 93.206831 69.891548 C 93.6088 68.31118 94.161495 66.654053 94.864955 64.920735 C 95.618664 63.187427 96.47263 61.454116 97.427329 59.720798 C 98.432278 57.987489 99.512701 56.432622 100.66839 55.056163 C 101.82409 53.679704 103.03021 52.55792 104.28639 51.691257 C 105.54257 50.824602 106.79858 50.391528 108.05476 50.391528 z M 144.51357 50.391528 C 145.66926 50.391528 146.49829 50.748417 147.00076 51.462134 C 147.55349 52.175849 147.82982 53.169826 147.82982 54.444316 C 147.82982 55.514894 147.6288 56.8407 147.22682 58.421068 C 146.82484 60.001447 146.24722 61.658053 145.49351 63.391371 C 144.79005 65.12469 143.93558 66.857991 142.93063 68.591309 C 141.97594 70.324627 140.92095 71.879485 139.76526 73.255943 C 138.60957 74.632392 137.40345 75.75419 136.14726 76.620849 C 134.89108 77.487508 133.63508 77.920578 132.37889 77.920578 C 131.2232 77.920578 130.36875 77.563692 129.81602 76.849973 C 129.31354 76.136253 129.06264 75.142289 129.06264 73.867791 C 129.06264 72.797222 129.26366 71.471927 129.66564 69.891548 C 130.06762 68.31118 130.62031 66.654053 131.32377 64.920735 C 132.07749 63.187427 132.93144 61.454116 133.88614 59.720798 C 134.89108 57.987489 135.9715 56.432622 137.1272 55.056163 C 138.28289 53.679704 139.48901 52.55792 140.7452 51.691257 C 142.00138 50.824602 143.25738 50.391528 144.51357 50.391528 z M 201.22639 50.391528 C 201.82936 50.391528 202.30672 50.544408 202.65845 50.850286 C 203.06043 51.156165 203.26145 51.665934 203.26145 52.37965 C 203.26145 53.603166 202.83447 54.903399 201.98026 56.279858 C 201.12606 57.605326 199.97032 58.879492 198.51314 60.103011 C 197.10621 61.27555 195.47311 62.346218 193.61396 63.314827 C 191.7548 64.232466 189.79499 64.895108 187.73484 65.302948 C 188.03633 64.028459 188.66482 62.550286 189.61952 60.867948 C 190.62447 59.134629 191.75477 57.503077 193.01096 55.973679 C 194.31739 54.39331 195.6991 53.068013 197.15627 51.997436 C 198.61345 50.926859 199.9702 50.391528 201.22639 50.391528 z M 232.48477 50.391528 C 233.64047 50.391528 234.59518 50.748417 235.34889 51.462134 C 236.1026 52.124867 236.4792 53.195534 236.4792 54.67395 C 236.4792 56.407268 236.02728 58.4719 235.12283 60.867948 C 234.21838 63.264005 233.0377 65.583775 231.58052 67.826882 C 230.17359 70.01901 228.59037 71.905199 226.83171 73.485578 C 225.12329 75.014966 223.46526 75.779367 221.85734 75.779367 C 220.50066 75.779367 219.54593 75.295168 218.99321 74.326549 C 218.4405 73.35794 218.16415 72.261707 218.16415 71.038188 C 218.16415 69.15193 218.61657 67.011114 219.52103 64.615066 C 220.42548 62.219009 221.58122 59.975934 222.98815 57.885766 C 224.39508 55.795588 225.92742 54.036717 227.58558 52.609284 C 229.294 51.13087 230.92711 50.391528 232.48477 50.391528 z " />
    <path
       style="fill:#1a1a1a;fill-rule:nonzero;stroke:none;stroke-width:5.85271;stroke-dasharray:none"
       d="m 23.594531,24.628347 c -0.63926,2.09142 -1.40998,4.646494 -2.09476,8.015642 -0.66781,3.285678 -1.04376,6.348515 -1.24365,9.107071 -0.19108,2.637015 -0.20527,4.800335 -0.17486,5.873375 0.009,0.302385 0.0214,0.556498 0.0384,0.76265 0.0311,0.376264 0.0767,0.77228 0.1289,1.148277 0.0326,0.234975 0.0671,0.456453 0.099,0.642441 0.0273,0.159384 0.0566,0.314836 0.0768,0.388258 0.0543,2.026955 -0.1755,3.908847 -0.70154,5.641517 -0.48473,1.59661 -1.2098,3.02939 -2.14864,4.31235 -0.904007,1.23535 -1.986195,2.30426 -3.189165,3.22757 -1.195018,0.91722 -2.482734,1.67038 -3.778697,2.28914 -2.727908,1.30244 -5.448776,1.98726 -7.25833,2.35055 C 0.776576,68.903428 0,68.905668 0,68.905668 c 0,0 0.770718,0.1358 3.402357,-0.15978 1.848123,-0.20758 4.661602,-0.69068 7.571724,-1.83788 1.382466,-0.54498 2.789597,-1.24104 4.125147,-2.13091 1.345173,-0.89628 2.601283,-1.97826 3.685313,-3.28143 1.12863,-1.35678 2.0392,-2.91558 2.68005,-4.68941 0.69538,-1.9248 1.04331,-4.019902 1.06491,-6.256829 0.0196,-0.163882 0.029,-0.342315 0.0323,-0.532971 0.004,-0.211811 -2.7e-4,-0.446552 -0.009,-0.686253 -0.0133,-0.374487 -0.0385,-0.786069 -0.0682,-1.144439 -0.0168,-0.203494 -0.0441,-0.446672 -0.0802,-0.740328 -0.12777,-1.038825 -0.42785,-3.103465 -0.58015,-5.682307 -0.15829,-2.680173 -0.15223,-5.743143 0.19498,-9.036643 0.34676,-3.289249 0.96523,-6.103302 1.57498,-8.098141 z"
       id="path149" />
    <path
       style="fill:none;fill-opacity:1;stroke:#000000;stroke-width:1.39196;stroke-linecap:round;stroke-miterlimit:3.8;stroke-dasharray:0.347993, 0.347993;stroke-dashoffset:0;stroke-opacity:1;paint-order:fill markers stroke"
       d="m 21.015591,55.088588 c 0,0 -1.80908,7.52152 -2.3557,11.19677 -0.41619,2.79833 -0.40258,8.69862 1.09062,10.97654 1.13046,1.72455 3.06402,2.3528 3.06402,2.3528"
       id="path150" />
    <path
       style="fill:#000000;fill-opacity:1;fill-rule:nonzero;stroke:none;stroke-width:1.48952;stroke-linecap:round;stroke-miterlimit:3.8;stroke-dasharray:0.37238, 0.37238;stroke-dashoffset:0;stroke-opacity:1;paint-order:fill markers stroke"
       d="m 20.995411,40.819717 c 0,0 -0.57016,-0.426994 -0.57016,-0.426994 0.009,-0.0124 -0.39151,0.738724 -1.94148,2.493133 -1.16054,1.313633 -2.949154,3.100318 -5.093988,4.451068 -2.139386,1.347412 -4.04544,1.877762 -5.321708,2.101094 -1.764834,0.308831 -2.240694,0.176129 -2.240694,0.176129 0,0 0.446849,0.248162 2.275084,0.105627 1.317979,-0.102759 3.331234,-0.491452 5.642638,-1.760762 2.305199,-1.265825 4.270098,-3.004746 5.558258,-4.272867 1.72736,-1.700507 2.25319,-2.427046 2.2622,-2.439435 z"
       id="path152" />
    <path
       style="fill:#000000;fill-opacity:1;fill-rule:nonzero;stroke:none;stroke-width:1.48952;stroke-linecap:round;stroke-miterlimit:3.8;stroke-dasharray:0.37238, 0.37238;stroke-dashoffset:0;stroke-opacity:1;paint-order:fill markers stroke"
       d="m 17.436181,44.781069 c 0,0 0.10574,0.387326 0.0779,0.398749 -0.15553,0.06383 -0.720068,0.274817 -1.895912,0.658479 -0.53943,0.176008 -1.209926,0.385736 -1.920936,0.583616 -0.67205,0.187042 -1.388,0.365702 -2.077257,0.498067 -1.419118,0.272966 -2.323942,0.116388 -2.850353,-0.07687 -0.707455,-0.259731 -0.755711,-0.482535 -0.755711,-0.482535 0,0 0.110196,0.169666 0.801717,0.321334 0.514538,0.112853 1.377995,0.172452 2.714441,-0.173692 0.66582,-0.17223 1.357246,-0.389037 2.008497,-0.61265 0.691113,-0.237299 1.334328,-0.48132 1.858156,-0.689046 1.13568,-0.450353 1.67217,-0.705079 1.822323,-0.766701 0.02689,-0.011 0.217145,0.341247 0.217145,0.341247 z"
       id="path153" />
    <path
       style="fill:#000000;fill-opacity:1;fill-rule:nonzero;stroke:none;stroke-width:1.97724;stroke-linecap:round;stroke-miterlimit:3.8;stroke-dasharray:0.494312, 0.494312;stroke-dashoffset:0;stroke-opacity:1;paint-order:fill markers stroke"
       d="m 50.264361,37.129395 c -2.7e-4,-0.02213 0.41849,-0.125012 0.41658,-0.155954 -0.002,-0.03053 -0.005,-0.06412 -0.009,-0.100997 -0.009,-0.07873 -0.0249,-0.172478 -0.0474,-0.283015 -0.036,-0.176987 -0.0908,-0.400536 -0.16654,-0.66456 -0.12731,-0.44407 -0.3167,-1.010927 -0.55567,-1.59205 -0.17065,-0.369995 -0.38388,-0.698058 -0.60939,-0.967329 -0.30572,-0.365047 -0.57452,-0.555619 -0.75988,-0.689784 0.18232,0.131965 0.41589,0.399417 0.61931,0.81294 0.15211,0.309205 0.26911,0.66351 0.33483,1.024429 0.14426,0.605736 0.23334,1.161641 0.28367,1.598283 0.0298,0.258249 0.0449,0.464021 0.0535,0.621725 0.005,0.09773 0.008,0.174831 0.0106,0.235632 10e-4,0.02837 0.002,0.05292 0.004,0.07428 10e-4,0.02162 0.42578,0.06425 0.42605,0.0864 z"
       id="path154" />
    <path
       style="fill:#000000;fill-opacity:1;fill-rule:nonzero;stroke:none;stroke-width:1.97724;stroke-linecap:round;stroke-miterlimit:3.8;stroke-dasharray:0.494311, 0.494311;stroke-dashoffset:0;stroke-opacity:1;paint-order:fill markers stroke"
       d="m 49.640081,46.158145 c 0,0 0.3471,-0.08356 0.34492,-0.09531 -0.0219,-0.117781 -0.14836,-0.766007 -0.54485,-2.002654 -0.16853,-0.525648 -0.38964,-1.144844 -0.65988,-1.734312 -0.25634,-0.559169 -0.56069,-1.100068 -0.91256,-1.51231 -0.16168,-0.188359 -0.36225,-0.381043 -0.58585,-0.572765 -0.22607,-0.193843 -0.47801,-0.388665 -0.74083,-0.578789 -0.546,-0.394975 -1.14447,-0.773629 -1.66993,-1.087691 -1.48877,-0.889817 -2.05349,-1.125507 -2.05349,-1.125507 0,0 0.54226,0.284652 1.97601,1.251088 0.5058,0.340941 1.07964,0.748459 1.59379,1.167944 0.24771,0.202089 0.481,0.406507 0.68612,0.607285 0.20368,0.199375 0.37645,0.392133 0.50746,0.572685 0.29061,0.39747 0.54325,0.918413 0.75709,1.470671 0.22486,0.58073 0.40388,1.188352 0.53819,1.709632 0.3148,1.221837 0.38859,1.861302 0.40846,1.968434 0.002,0.01066 0.35535,-0.03842 0.35535,-0.03842 z"
       id="path155" />
    <path
       style="fill:#000000;fill-opacity:1;fill-rule:nonzero;stroke:none;stroke-width:1.97724;stroke-linecap:round;stroke-miterlimit:3.8;stroke-dasharray:0.494311, 0.494311;stroke-dashoffset:0;stroke-opacity:1;paint-order:fill markers stroke"
       d="m 18.373211,69.002128 c 0,0 -0.35107,0.0876 -0.35165,0.14285 -0.004,0.34966 0.0414,1.65266 -0.42132,3.79367 -0.21407,0.99062 -0.559166,2.15388 -1.12567,3.22522 -0.265146,0.50142 -0.581042,0.98699 -0.958227,1.42633 -0.364893,0.42501 -0.788823,0.80875 -1.282706,1.12213 -0.347829,0.22956 -0.759284,0.46275 -1.22099,0.69 -0.449807,0.2214 -0.940455,0.43376 -1.453056,0.62758 -1.037807,0.39241 -2.122968,0.69297 -3.101462,0.84651 -1.192311,0.18355 -2.223631,0.008 -2.875452,-0.16076 -0.925862,-0.23957 -1.183435,-0.41907 -1.183435,-0.41907 0,0 0.240222,0.20536 1.161645,0.49707 0.645898,0.20448 1.689811,0.43613 2.924987,0.29908 1.002816,-0.10812 2.118129,-0.36343 3.192909,-0.71391 0.530862,-0.1731 1.042597,-0.36647 1.515661,-0.57122 0.485025,-0.20991 0.925674,-0.43015 1.3061,-0.65215 0.548683,-0.33303 1.019817,-0.74329 1.424584,-1.1965 0.418,-0.46802 0.766807,-0.98361 1.058582,-1.51154 0.62203,-1.12549 1.00381,-2.34177 1.24274,-3.36366 0.48076,-2.05622 0.49679,-3.82032 0.49795,-3.93125 6.1e-4,-0.0592 -0.35119,-0.15038 -0.35119,-0.15038 z"
       id="path156" />
    <path
       style="fill:#000000;fill-opacity:1;fill-rule:nonzero;stroke:none;stroke-width:1.39197;stroke-linecap:round;stroke-miterlimit:3.8;stroke-dasharray:0.347992, 0.347992;stroke-dashoffset:0;stroke-opacity:1;paint-order:fill markers stroke"
       d="m 258.23563,57.882138 v 0 c 0,0 0.37141,0.20424 0.37229,0.2025 0.0173,-0.0341 0.16254,-0.46035 0.81111,-1.46634 0.51036,-0.7916 1.34574,-1.91412 2.49273,-2.885 0.54836,-0.464653 1.16157,-0.811879 1.77031,-1.072061 0.63397,-0.27097 1.25625,-0.444573 1.77987,-0.557839 1.44904,-0.313448 1.92095,-0.253466 1.92095,-0.253466 0,0 -0.46264,-0.129478 -1.94887,0.0778 -0.5367,0.07485 -1.18315,0.206968 -1.85335,0.441768 -0.64226,0.225017 -1.31015,0.545678 -1.92481,1.003988 -1.24734,0.92915 -2.19217,2.03549 -2.7847,2.81594 -0.75487,0.99425 -0.97468,1.42454 -1.00212,1.47888 -10e-4,0.003 0.36659,0.21383 0.36659,0.21383 z"
       id="path157" />
    <path
       style="fill:#000000;fill-opacity:1;fill-rule:nonzero;stroke:none;stroke-width:1.39196;stroke-linecap:round;stroke-miterlimit:3.8;stroke-dasharray:0.347993, 0.347993;stroke-dashoffset:0;stroke-opacity:1;paint-order:fill markers stroke"
       d="m 257.994,57.924968 c 0,0 0.23219,0.10836 0.24426,0.0887 0.0587,-0.0958 0.24189,-0.40339 0.52756,-1.1099 0.26314,-0.6508 0.59373,-1.63587 0.68695,-2.76079 0.0234,-0.27927 -6.3e-4,-0.558041 -0.0594,-0.830358 -0.0589,-0.274188 -0.15247,-0.542123 -0.26717,-0.797962 -0.23765,-0.530077 -0.56861,-1.014209 -0.88168,-1.403761 -0.16874,-0.209964 -0.33525,-0.396179 -0.48579,-0.553386 -0.16314,-0.170366 -0.31067,-0.310014 -0.4309,-0.416404 -0.0657,-0.05819 -0.12431,-0.107288 -0.17485,-0.147693 -0.0546,-0.04363 -0.1003,-0.07747 -0.13698,-0.10253 -0.0197,-0.01348 -0.0369,-0.02449 -0.0517,-0.03326 -0.0157,-0.0093 -0.0286,-0.01609 -0.0391,-0.02067 -0.006,-0.0025 -0.0103,-0.0045 -0.0145,-0.0057 -0.004,-0.0013 -0.008,-0.0019 -0.011,-0.0019 -10e-4,-8.9e-5 -0.003,-3.8e-5 -0.004,1.53e-4 -10e-4,1.9e-4 -0.003,5.21e-4 -0.003,0.0013 -0.003,0.0025 -0.003,0.0032 -0.003,0.0045 2.6e-4,-0.0013 6.3e-4,-0.0019 10e-4,-0.0025 0.003,-0.0019 0.004,-0.0019 0.005,-0.0025 0.001,-5.8e-5 0.003,3.1e-5 0.004,2.79e-4 0.003,4.77e-4 0.006,0.0013 0.0103,0.0032 0.004,0.0019 0.008,0.0038 0.0136,0.0067 0.01,0.0057 0.022,0.01329 0.0367,0.02379 0.0139,0.0099 0.03,0.02213 0.0485,0.03695 0.0344,0.02754 0.0773,0.06435 0.12866,0.111205 0.0474,0.04338 0.10266,0.09583 0.16446,0.157399 0.11292,0.112509 0.25209,0.259565 0.40485,0.436616 0.14109,0.163529 0.29674,0.356117 0.4531,0.57136 0.29122,0.400898 0.59094,0.888846 0.79483,1.411183 0.0982,0.251571 0.17343,0.509279 0.2151,0.767331 0.0414,0.256221 0.0492,0.510008 0.0154,0.756888 -0.1466,1.07901 -0.52277,2.01627 -0.8096,2.61361 -0.28422,0.59193 -0.56567,1.0135 -0.56703,1.01571 -0.0107,0.0174 0.18554,0.18266 0.18554,0.18266 z"
       id="path158" />
    <path
       style="fill:#000000;fill-opacity:1;fill-rule:nonzero;stroke:none;stroke-width:1.39196;stroke-linecap:round;stroke-miterlimit:3.8;stroke-dasharray:0.347993, 0.347993;stroke-dashoffset:0;stroke-opacity:1;paint-order:fill markers stroke"
       d="m 163.26767,51.366312 c 0,0 0,0.687424 0,0.687424 l -0.0827,-1.369703 c 0.008,-0.0013 -0.5842,0.153366 -2.12994,0.303793 -0.59661,0.05807 -1.30735,0.108712 -2.05468,0.123474 -0.71488,0.01412 -1.45442,-0.0051 -2.14287,-0.08112 -0.65571,-0.07076 -1.29054,-0.307202 -1.87696,-0.626902 -0.61053,-0.332846 -1.15203,-0.746541 -1.59142,-1.129745 -1.22276,-1.066425 -1.51144,-1.557305 -1.51144,-1.557305 0,0 0.1959,0.539426 1.32664,1.753581 0.40416,0.433965 0.92395,0.922135 1.53411,1.33908 0.58306,0.398424 1.26118,0.740441 2.01099,0.899913 0.71692,0.154071 1.48684,0.247119 2.22592,0.302801 0.77088,0.05807 1.51456,0.07591 2.12853,0.07852 1.60367,0.0068 2.23845,-0.04051 2.24658,-0.04153 l -0.0827,0.0103 v -1.380032 c 0,0 0,0.687425 0,0.687425 z"
       id="path159" />
    <path
       style="fill:#000000;fill-opacity:1;fill-rule:nonzero;stroke:none;stroke-width:1.39196;stroke-linecap:round;stroke-miterlimit:3.8;stroke-dasharray:0.347993, 0.347993;stroke-dashoffset:0;stroke-opacity:1;paint-order:fill markers stroke"
       d="m 185.00868,51.353534 v 0 c 0,0 0.0108,0.701061 0.0111,0.701055 0.0245,-3.83e-4 0.47019,-0.07205 2.50527,-0.350096 0.32941,-0.04944 0.58653,-0.09084 0.82086,-0.132194 0.23007,-0.0406 0.43929,-0.08137 0.67809,-0.131133 0.24107,-0.05026 0.50302,-0.107663 0.85247,-0.183548 0.35739,-0.07761 0.78645,-0.17018 1.3544,-0.289228 0.75984,-0.177868 1.37323,-0.493137 1.74547,-0.717712 0.53111,-0.320424 0.65684,-0.473281 0.65684,-0.473281 0,0 -0.16208,0.108308 -0.724,0.33527 -0.39638,0.160101 -1.02188,0.374356 -1.74528,0.445734 -0.57091,0.07248 -1.01047,0.118564 -1.36642,0.145994 -0.34926,0.02692 -0.61173,0.03544 -0.845,0.03549 -0.23112,-2.17e-4 -0.43667,-0.0092 -0.66568,-0.01675 -0.23706,-0.0078 -0.49717,-0.01409 -0.8389,-0.01 -2.02761,0.04736 -2.44408,-0.06048 -2.44938,-0.0604 -7e-5,3e-6 0.0101,0.701075 0.0101,0.701075 z"
       id="path160" />
    <path
       style="fill:#000000;fill-opacity:1;fill-rule:nonzero;stroke:none;stroke-width:1.39196;stroke-linecap:round;stroke-miterlimit:3.8;stroke-dasharray:0.347993, 0.347993;stroke-dashoffset:0;stroke-opacity:1;paint-order:fill markers stroke"
       d="m 160.11899,51.753581 c 0,0 0.007,-0.08363 -0.0766,-0.229337 -0.0792,-0.137529 -0.22939,-0.315158 -0.3315,-0.37252 -0.18889,-0.10611 -0.48224,-0.261937 -0.87966,-0.472817 -0.35985,-0.190954 -0.78485,-0.416353 -1.21669,-0.648857 -0.19201,-0.103382 -0.38001,-0.205289 -0.55432,-0.300823 -0.1686,-0.0924 -0.32099,-0.176987 -0.45008,-0.250096 -0.23564,-0.131741 -0.44213,-0.314268 -0.62131,-0.52177 -0.18259,-0.21144 -0.32874,-0.439453 -0.44152,-0.642313 -0.31296,-0.562901 -0.35565,-0.771453 -0.35565,-0.771453 0,0 -0.0211,0.215357 0.2115,0.839626 0.0836,0.224376 0.2025,0.486422 0.36728,0.741472 0.16109,0.249326 0.36647,0.492616 0.62642,0.68745 0.12281,0.09288 0.26996,0.197116 0.43079,0.306947 0.1665,0.113718 0.34815,0.233744 0.53244,0.353205 0.40389,0.261772 0.83846,0.532347 1.17588,0.738978 0.37964,0.232479 0.67884,0.410343 0.86225,0.513382 0.10254,0.05762 0.33157,0.09235 0.48876,0.08657 0.16661,-0.0064 0.23203,-0.05762 0.23203,-0.05762 z"
       id="path161" />
    <text
       xml:space="preserve"
       style="font-style:normal;font-variant:normal;font-weight:normal;font-stretch:normal;font-size:16.111px;font-family:'Courier New';-inkscape-font-specification:'Courier New, Normal';font-variant-ligatures:normal;font-variant-caps:normal;font-variant-numeric:normal;font-variant-east-asian:normal;letter-spacing:0.0438936px;word-spacing:0.0181517px;fill:#000000;fill-opacity:1;stroke:none;stroke-width:1.39196;stroke-linecap:round;stroke-miterlimit:3.8;stroke-dasharray:0.347993, 0.347993;stroke-dashoffset:0;stroke-opacity:1;paint-order:fill markers stroke"
       x="29.09156"
       y="84.396553"
       id="text162"
       transform="scale(0.90973682,1.099219)"><tspan
         id="tspan162"
         style="font-style:normal;font-variant:normal;font-weight:normal;font-stretch:normal;font-size:16.111px;font-family:'Courier New';-inkscape-font-specification:'Courier New, Normal';font-variant-ligatures:normal;font-variant-caps:normal;font-variant-numeric:normal;font-variant-east-asian:normal;fill:#000000;fill-opacity:1;stroke:none;stroke-width:1.39196;stroke-opacity:1"
         x="29.09156"
         y="84.396553">WEB DESIGN &amp; DEVELOPMENT</tspan></text>
  </g>
</svg>
